<svg width="75" height="74" viewBox="0 0 75 74" fill="none" xmlns="http://www.w3.org/2000/svg">
<path d="M69.9685 12.4222H54.7939C53.8217 12.4222 53.0309 13.2483 53.0309 14.2637V20.8009H34.9893V11.2602C34.9893 9.52448 36.3013 8.07084 37.9132 8.02013C39.4072 7.97406 40.6903 9.05041 40.9692 10.5779C41.1464 11.5508 41.97 12.257 42.9275 12.257H46.649C47.2165 12.257 47.7591 12.0038 48.1376 11.5624C48.5164 11.1208 48.698 10.5295 48.636 9.93972C48.3458 7.19588 47.0918 4.66835 45.1046 2.8228C43.1 0.960728 40.5183 -0.0411557 37.8403 0.00129577C32.0348 0.0950367 27.3118 5.17443 27.3118 11.324V20.8009H20.432V14.2637C20.432 13.2483 19.641 12.4222 18.669 12.4222H3.49441C2.52235 12.4222 1.73145 13.2483 1.73145 14.2637V16.5485C1.73145 17.5648 2.52235 18.3915 3.49441 18.3915H12.5076V20.8009H8.26872C6.36122 20.8009 4.80936 22.4226 4.80936 24.4158V29.7621C4.80936 31.7546 6.36122 33.3755 8.26872 33.3755H9.11483V38.3016C9.11483 49.7627 17.9169 59.1159 28.8307 59.375V61.3211C28.8307 62.887 30.0496 64.1608 31.548 64.1608H31.8587V69.3608C31.8587 71.9189 33.8517 74 36.3015 74H36.3597C38.8096 74 40.8025 71.9189 40.8025 69.3608V64.1608H41.3809C42.8801 64.1608 44.0997 62.887 44.0997 61.3211V59.3754C54.0592 59.1379 62.4254 51.2877 63.6592 40.9293C63.7303 40.3338 63.3255 39.7909 62.7553 39.7167C62.1864 39.6424 61.6655 40.0652 61.5946 40.661C60.4711 50.0942 52.7501 57.2078 43.6349 57.2078H29.2954C19.3149 57.2078 11.1954 48.7264 11.1954 38.3016V33.3755H15.555C16.1295 33.3755 16.5953 32.889 16.5953 32.2889C16.5953 31.6888 16.1295 31.2023 15.555 31.2023H8.26872C7.50846 31.2023 6.88997 30.5562 6.88997 29.7621V24.4158C6.88997 23.621 7.50846 22.9742 8.26872 22.9742H65.3343C66.0945 22.9742 66.713 23.621 66.713 24.4158V29.7621C66.713 30.5562 66.0945 31.2023 65.3343 31.2023H20.4098C19.8352 31.2023 19.3695 31.6888 19.3695 32.2889C19.3695 32.889 19.8352 33.3755 20.4098 33.3755H61.7348V35.7241C61.7348 36.3242 62.2005 36.8108 62.7751 36.8108C63.3498 36.8108 63.8154 36.3242 63.8154 35.7241V33.3755H65.3343C67.2418 33.3755 68.7936 31.7546 68.7936 29.7621V24.4158C68.7936 22.4226 67.2418 20.8009 65.3343 20.8009H60.9553V18.3915H69.9685C70.9407 18.3915 71.7314 17.5648 71.7314 16.5485V14.2637C71.7314 13.2483 70.9407 12.4222 69.9685 12.4222ZM38.7219 69.3608C38.7219 70.7205 37.6622 71.8267 36.3597 71.8267H36.3015C34.999 71.8267 33.9393 70.7205 33.9393 69.3608V64.1608H38.7218V69.3608H38.7219ZM41.3809 61.9875H31.548C31.1969 61.9875 30.9113 61.6886 30.9113 61.3211V59.381H42.019V61.3211C42.019 61.6886 41.7328 61.9875 41.3809 61.9875ZM29.3924 11.324C29.3924 6.35438 33.1966 2.24977 37.8722 2.17429C37.9175 2.17356 37.9623 2.17327 38.0076 2.17327C42.3847 2.17327 46.0327 5.54476 46.5576 10.0839H42.9966C42.4924 7.54795 40.3398 5.77194 37.8514 5.84786C35.126 5.93378 32.9088 8.36177 32.9088 11.2602V20.8009H29.3926V11.324H29.3924ZM12.8253 16.2182H3.81205V14.5955H18.3513V20.8009H14.5882V18.0597C14.5882 17.0443 13.7973 16.2182 12.8253 16.2182ZM69.6508 16.2182H60.6376C59.6656 16.2182 58.8747 17.0443 58.8747 18.0597V20.8009H55.1115V14.5955H69.6508V16.2182Z" fill="#F18700"/>
</svg>
