<svg width="69" height="74" viewBox="0 0 69 74" fill="none" xmlns="http://www.w3.org/2000/svg">
<path d="M65.3833 0H3.70852C1.96482 0 0.545898 1.54413 0.545898 3.44224V12.4219C0.545898 14.3194 1.96482 15.8636 3.70852 15.8636H52.8267C53.4565 15.8636 53.9691 16.4214 53.9691 17.1068V70.5583C53.9691 72.4564 55.388 74 57.1317 74H65.3833C67.1275 74 68.5459 72.4564 68.5459 70.5583V3.44224C68.5464 1.54413 67.1275 0 65.3833 0V0ZM66.5257 70.5583C66.5257 71.2437 66.0131 71.8015 65.3838 71.8015H62.2679V58.3109C62.2679 57.7034 61.8155 57.2111 61.2578 57.2111C60.6995 57.2111 60.2476 57.7034 60.2476 58.3109V71.8015H57.1322C56.5019 71.8015 55.9898 71.2437 55.9898 70.5583V17.1068C55.9898 15.2092 54.5709 13.6651 52.8272 13.6651H3.70852C3.07869 13.6651 2.56664 13.1073 2.56664 12.4219V9.03101H50.0516C50.6093 9.03101 51.0617 8.53926 51.0617 7.93178C51.0617 7.32429 50.6093 6.83254 50.0516 6.83254H2.56664V3.44224C2.56664 2.75684 3.07921 2.19904 3.70852 2.19904H65.3833C66.0131 2.19904 66.5257 2.75684 66.5257 3.44168V70.5583Z" fill="#F18700"/>
<path d="M50.4443 31.774C48.1552 29.9468 44.9367 30.5028 43.2708 33.0127C41.067 36.3323 43.5703 40.9151 46.9361 40.3334C47.8993 40.1669 48.7461 39.5989 49.3198 38.7343C49.649 38.2387 49.5492 37.5441 49.0972 37.1831C48.6447 36.8222 48.0112 36.9316 47.6819 37.4272C47.4265 37.8122 47.0494 38.0648 46.6209 38.1389C45.0256 38.4138 43.7706 36.0346 44.9086 34.3197C45.9177 32.7999 47.866 32.464 49.2522 33.5698C51.0976 35.0423 51.5064 37.8869 50.1634 39.9108C48.4018 42.5638 45.0002 43.1512 42.5805 41.2207C39.5701 38.8181 38.8102 34.2696 40.77 30.8661C44.0369 30.6534 46.4627 29.5066 47.982 27.4484C48.3341 26.9716 48.2671 26.2725 47.8322 25.8864C47.3974 25.5009 46.7592 25.5744 46.4076 26.0512C45.3278 27.5128 43.549 28.3734 41.1122 28.6135C40.8699 24.082 42.9004 20.9506 47.6023 20.4556C47.6788 21.1411 47.6918 21.8608 47.6289 22.5565C47.5737 23.1667 47.9799 23.7108 48.537 23.7712C49.094 23.8334 49.5897 23.3863 49.6449 22.7755C49.7328 21.8026 49.7021 20.7806 49.5689 19.8323C49.4306 18.848 48.6369 18.1414 47.7043 18.2166C39.9113 18.8713 39.0697 25.2693 39.0697 27.9896C39.0697 28.5302 39.1009 28.9933 39.1347 29.3395C36.3604 31.9536 32.137 31.8305 29.5052 28.8593C27.4148 26.5 27.4647 22.7356 29.617 20.4436C32.1552 17.7405 36.3932 19.6509 36.3495 22.9625C36.3136 25.6343 33.7229 27.0526 32.176 25.3064C31.5513 24.6015 31.5664 23.4712 32.2093 22.7863C32.6108 22.3592 32.6202 21.656 32.2301 21.2163C30.7909 19.5922 28.2714 24.0866 30.7228 26.8542C33.5158 30.0067 38.3129 27.6714 38.3748 22.9945C38.4456 17.6948 32.0236 14.7847 28.2054 18.8508C25.2506 21.9976 25.1814 27.1667 28.052 30.407C30.6942 33.3896 34.6086 34.1538 37.8953 32.7252C36.6511 38.614 40.5495 44.578 45.7647 44.578C48.0699 44.578 50.3444 43.4123 51.8013 41.2173C53.8017 38.2039 53.1931 33.9673 50.4443 31.774Z" fill="#F18700"/>
</svg>
