<svg width="81" height="76" viewBox="0 0 81 76" fill="none" xmlns="http://www.w3.org/2000/svg">
<path d="M80.0594 37.9969C80.0594 36.1903 79.0508 34.5439 77.357 33.5891L72.9024 31.0994C74.6185 30.1314 76.1476 29.268 77.3606 28.5824C79.051 27.6242 80.0594 25.9779 80.0594 24.178C80.0594 22.3781 79.0508 20.7317 77.3606 19.7718C71.7924 16.6258 52.911 5.96628 43.6035 0.897314C41.4479 -0.278475 38.8272 -0.325597 36.4976 0.907516C36.4976 0.907516 11.1851 15.0319 2.76178 19.7703C1.06815 20.7249 0.0595703 22.3713 0.0595703 24.178C0.0595703 25.9779 1.06815 27.6242 2.75837 28.5842C3.97116 29.2693 5.50013 30.1325 7.21575 31.1001L2.76195 33.5891C1.06815 34.5439 0.0595703 36.1903 0.0595703 37.9969C0.0595703 39.7968 1.06815 41.4432 2.75837 42.4031C3.97116 43.0883 5.50013 43.9515 7.21575 44.9191L2.76195 47.4081C1.06815 48.3629 0.0595703 50.0092 0.0595703 51.8159C0.0595703 53.6158 1.06815 55.2621 2.75837 56.2221C9.96365 60.2924 27.6732 70.2805 36.5155 75.0966C37.5985 75.687 38.8274 75.999 40.0596 75.999C41.2918 75.999 42.5206 75.687 43.6072 75.0948C52.446 70.2804 70.1555 60.2924 77.3608 56.2203C79.0512 55.2621 80.0596 53.6158 80.0596 51.8159C80.0596 50.0092 79.051 48.3629 77.3572 47.4081L72.9025 44.9184C74.6187 43.9504 76.1478 43.087 77.3608 42.4013C79.051 41.4432 80.0594 39.7968 80.0594 37.9969ZM4.61922 25.6197C4.34223 25.4611 3.69587 25.0056 3.69587 24.1809C3.69587 23.3526 4.33865 22.9007 4.61564 22.7454C12.266 18.4411 33.8629 6.38785 37.7113 4.24007C38.0948 4.02606 38.302 3.9104 38.3017 3.91055C39.4594 3.29148 40.7235 3.31512 41.796 3.89873C51.0786 8.95409 69.9423 19.6011 75.4997 22.742C75.7767 22.9005 76.4231 23.356 76.4231 24.1807C76.4231 25.0054 75.7767 25.461 75.4997 25.6179C68.3052 29.683 50.617 39.6605 41.7996 44.4611C40.7058 45.0549 39.4096 45.0531 38.323 44.4627C29.502 39.6605 11.8138 29.6832 4.61922 25.6197ZM75.5033 50.3817C75.7803 50.5368 76.4231 50.9889 76.4231 51.8172C76.4231 52.6421 75.7767 53.0974 75.4997 53.2544C68.3052 57.3195 50.617 67.2969 41.7996 72.0976C40.7058 72.6914 39.4096 72.6896 38.323 72.0992C29.502 67.2969 11.8138 57.3195 4.61922 53.256C4.34223 53.0974 3.69587 52.6419 3.69587 51.8172C3.69587 50.9889 4.33865 50.537 4.61564 50.3817L10.7859 46.9324C19.1259 51.6286 30.1274 57.7991 36.5155 61.2783C37.5985 61.8687 38.8274 62.1807 40.0596 62.1807C41.2918 62.1807 42.5206 61.8687 43.6072 61.2766C49.9926 57.7987 60.9931 51.629 69.3327 46.9322L75.5033 50.3817ZM75.4997 39.4362C68.3052 43.5013 50.617 53.4788 41.7996 58.2794C40.7058 58.8732 39.4096 58.8715 38.323 58.281C29.502 53.4786 11.8138 43.5013 4.61922 39.4378C4.34223 39.2793 3.69587 38.8238 3.69587 37.9991C3.69587 37.1708 4.33865 36.7188 4.61564 36.5635L10.7859 33.1142C19.1259 37.8104 30.1274 43.981 36.5155 47.4601C37.5985 48.0505 38.8274 48.3625 40.0596 48.3625C41.2918 48.3625 42.5206 48.0505 43.6072 47.4585C49.9926 43.9805 60.9931 37.8109 69.3327 33.114L75.5035 36.5635C75.7805 36.7187 76.4233 37.1708 76.4233 37.9991C76.4231 38.8238 75.7767 39.2793 75.4997 39.4362Z" fill="#F18700"/>
<path d="M80.0594 37.9969C80.0594 36.1903 79.0508 34.5439 77.357 33.5891L72.9024 31.0994C74.6185 30.1314 76.1476 29.268 77.3606 28.5824C79.051 27.6242 80.0594 25.9779 80.0594 24.178C80.0594 22.3781 79.0508 20.7317 77.3606 19.7718C71.7924 16.6258 52.911 5.96628 43.6035 0.897314C41.4479 -0.278475 38.8272 -0.325597 36.4976 0.907516C36.4976 0.907516 11.1851 15.0319 2.76178 19.7703C1.06815 20.7249 0.0595703 22.3713 0.0595703 24.178C0.0595703 25.9779 1.06815 27.6242 2.75837 28.5842C3.97116 29.2693 5.50013 30.1325 7.21575 31.1001L2.76195 33.5891C1.06815 34.5439 0.0595703 36.1903 0.0595703 37.9969C0.0595703 39.7968 1.06815 41.4432 2.75837 42.4031C3.97116 43.0883 5.50013 43.9515 7.21575 44.9191L2.76195 47.4081C1.06815 48.3629 0.0595703 50.0092 0.0595703 51.8159C0.0595703 53.6158 1.06815 55.2621 2.75837 56.2221C9.96365 60.2924 27.6732 70.2805 36.5155 75.0966C37.5985 75.687 38.8274 75.999 40.0596 75.999C41.2918 75.999 42.5206 75.687 43.6072 75.0948C52.446 70.2804 70.1555 60.2924 77.3608 56.2203C79.0512 55.2621 80.0596 53.6158 80.0596 51.8159C80.0596 50.0092 79.051 48.3629 77.3572 47.4081L72.9025 44.9184C74.6187 43.9504 76.1478 43.087 77.3608 42.4013C79.051 41.4432 80.0594 39.7968 80.0594 37.9969ZM4.61922 25.6197C4.34223 25.4611 3.69587 25.0056 3.69587 24.1809C3.69587 23.3526 4.33865 22.9007 4.61564 22.7454C12.266 18.4411 33.8629 6.38785 37.7113 4.24007C38.0948 4.02606 38.302 3.9104 38.3017 3.91055C39.4594 3.29148 40.7235 3.31512 41.796 3.89873C51.0786 8.95409 69.9423 19.6011 75.4997 22.742C75.7767 22.9005 76.4231 23.356 76.4231 24.1807C76.4231 25.0054 75.7767 25.461 75.4997 25.6179C68.3052 29.683 50.617 39.6605 41.7996 44.4611C40.7058 45.0549 39.4096 45.0531 38.323 44.4627C29.502 39.6605 11.8138 29.6832 4.61922 25.6197ZM75.5033 50.3817C75.7803 50.5368 76.4231 50.9889 76.4231 51.8172C76.4231 52.6421 75.7767 53.0974 75.4997 53.2544C68.3052 57.3195 50.617 67.2969 41.7996 72.0976C40.7058 72.6914 39.4096 72.6896 38.323 72.0992C29.502 67.2969 11.8138 57.3195 4.61922 53.256C4.34223 53.0974 3.69587 52.6419 3.69587 51.8172C3.69587 50.9889 4.33865 50.537 4.61564 50.3817L10.7859 46.9324C19.1259 51.6286 30.1274 57.7991 36.5155 61.2783C37.5985 61.8687 38.8274 62.1807 40.0596 62.1807C41.2918 62.1807 42.5206 61.8687 43.6072 61.2766C49.9926 57.7987 60.9931 51.629 69.3327 46.9322L75.5033 50.3817ZM75.4997 39.4362C68.3052 43.5013 50.617 53.4788 41.7996 58.2794C40.7058 58.8732 39.4096 58.8715 38.323 58.281C29.502 53.4786 11.8138 43.5013 4.61922 39.4378C4.34223 39.2793 3.69587 38.8238 3.69587 37.9991C3.69587 37.1708 4.33865 36.7188 4.61564 36.5635L10.7859 33.1142C19.1259 37.8104 30.1274 43.981 36.5155 47.4601C37.5985 48.0505 38.8274 48.3625 40.0596 48.3625C41.2918 48.3625 42.5206 48.0505 43.6072 47.4585C49.9926 43.9805 60.9931 37.8109 69.3327 33.114L75.5035 36.5635C75.7805 36.7187 76.4233 37.1708 76.4233 37.9991C76.4231 38.8238 75.7767 39.2793 75.4997 39.4362Z"/>
</svg>
