<svg width="53" height="74" viewBox="0 0 53 74" fill="none" xmlns="http://www.w3.org/2000/svg">
<path d="M51.5656 -0.000976562H2.04181C1.71344 -0.000976562 1.39853 0.124772 1.16634 0.348606C0.934153 0.572439 0.803711 0.876023 0.803711 1.19257V4.77322C0.803711 5.08977 0.934153 5.39335 1.16634 5.61718C1.39853 5.84102 1.71344 5.96677 2.04181 5.96677H3.2799V66.8377C3.2799 67.1543 3.41034 67.4579 3.64253 67.6817C3.87472 67.9055 4.18963 68.0313 4.518 68.0313V72.8055C4.518 73.122 4.64844 73.4256 4.88063 73.6494C5.11281 73.8733 5.42773 73.999 5.75609 73.999H47.8513C48.1797 73.999 48.4946 73.8733 48.7268 73.6494C48.959 73.4256 49.0894 73.122 49.0894 72.8055V68.0313C49.4178 68.0313 49.7327 67.9055 49.9649 67.6817C50.1971 67.4579 50.3275 67.1543 50.3275 66.8377V5.96677H51.5656C51.894 5.96677 52.2089 5.84102 52.4411 5.61718C52.6733 5.39335 52.8037 5.08977 52.8037 4.77322V1.19257C52.8037 0.876023 52.6733 0.572439 52.4411 0.348606C52.2089 0.124772 51.894 -0.000976562 51.5656 -0.000976562ZM46.6132 71.6119H6.99419V68.0313H46.6132V71.6119ZM5.75609 65.6442V5.96677H25.5656V65.6442H5.75609ZM47.8513 65.6442H28.0418V5.96677H47.8513V65.6442ZM50.3275 3.57967H3.2799V2.38612H50.3275V3.57967Z" fill="#F18700"/>
<path d="M23.0897 32.2246C22.7613 32.2246 22.4464 32.3504 22.2142 32.5742C21.982 32.798 21.8516 33.1016 21.8516 33.4182V40.5795C21.8516 40.896 21.982 41.1996 22.2142 41.4234C22.4464 41.6473 22.7613 41.773 23.0897 41.773C23.418 41.773 23.7329 41.6473 23.9651 41.4234C24.1973 41.1996 24.3278 40.896 24.3278 40.5795V33.4182C24.3278 33.1016 24.1973 32.798 23.9651 32.5742C23.7329 32.3504 23.418 32.2246 23.0897 32.2246Z" fill="#F18700"/>
<path d="M30.5184 41.773C30.8467 41.773 31.1616 41.6473 31.3938 41.4234C31.626 41.1996 31.7565 40.896 31.7565 40.5795V33.4182C31.7565 33.1016 31.626 32.798 31.3938 32.5742C31.1616 32.3504 30.8467 32.2246 30.5184 32.2246C30.19 32.2246 29.8751 32.3504 29.6429 32.5742C29.4107 32.798 29.2803 33.1016 29.2803 33.4182V40.5795C29.2803 40.896 29.4107 41.1996 29.6429 41.4234C29.8751 41.6473 30.19 41.773 30.5184 41.773Z" fill="#F18700"/>
</svg>
