<svg width="132" height="46" viewBox="0 0 132 46" fill="none" xmlns="http://www.w3.org/2000/svg">
<path d="M86 40.6001C80 41.1001 74 41.9001 68 42.6001C74.2 41.9001 80.3 41.2001 86 40.6001Z" fill="#0052CC"/>
<path d="M119.8 0.700054C110 -0.699946 101.8 0.400054 93.6 1.00005C67.8 3.20005 18.1 11.2001 1.3 4.60005C0.5 4.30005 0 3.30005 0 3.10005V35.2001C0 39.8001 3.3 43.7001 7.9 44.4001C28.2 47.7001 48.1 45.0001 68.1 42.5001C74.1 41.8001 80.1 41.0001 86.1 40.5001C104.9 38.5001 121.1 37.5001 130.5 41.2001C131.3 41.5001 131.8 42.5001 131.8 42.7001V12.4001C131.8 7.70005 127.3 1.70005 119.8 0.700054Z" fill="url(#paint0_linear)"/>
<defs>
<linearGradient id="paint0_linear" x1="0" y1="22.998" x2="131.8" y2="22.998" gradientUnits="userSpaceOnUse">
<stop stop-color="#484DC2"/>
<stop offset="0.364583" stop-color="#1F42C4"/>
<stop offset="0.666667" stop-color="#135694"/>
<stop offset="1" stop-color="#291B7B"/>
</linearGradient>
</defs>
</svg>
