<svg width="231" height="67" viewBox="0 0 231 67" fill="none" xmlns="http://www.w3.org/2000/svg">
<g clip-path="url(#clip0)">
<path d="M79.7536 58.6352V57.5145H79.4305C78.7239 57.5329 78.0229 57.3831 77.3836 57.0771C76.8767 56.8214 76.4621 56.4101 76.1986 55.9017C75.9362 55.4265 75.8059 54.888 75.8216 54.3435C75.8076 53.7748 75.9574 53.2143 76.2525 52.7307C76.5293 52.2325 76.9668 51.8464 77.4914 51.6373C78.0973 51.3487 78.7614 51.2082 79.4305 51.2272H79.7536V50.2705H80.6155V51.2272H80.9387C81.4034 51.2198 81.8666 51.2844 82.3122 51.4186C82.7316 51.5311 83.125 51.7261 83.4703 51.9926C83.8126 52.251 84.0895 52.5884 84.2782 52.9767C84.4681 53.4156 84.5601 53.8917 84.5475 54.3709C84.5606 54.915 84.4305 55.4528 84.1705 55.9289C83.9026 56.4273 83.4884 56.8286 82.9855 57.0771C82.3497 57.3935 81.6462 57.5438 80.9387 57.5145H80.6155V58.6352H79.7536ZM79.7536 56.8584V51.8559C77.6529 51.8559 76.6295 52.7307 76.6295 54.3709C76.6155 54.8121 76.6983 55.2509 76.8719 55.6557C77.0044 55.9652 77.2309 56.2238 77.5183 56.3937C77.8014 56.5841 78.124 56.7058 78.461 56.7491C78.8907 56.7942 79.3239 56.7942 79.7536 56.7491V56.8584ZM80.5347 51.8559V56.8584C81.0969 56.8631 81.6575 56.7989 82.2045 56.6671C82.633 56.5464 83.0112 56.2872 83.2817 55.9289C83.5581 55.4595 83.6895 54.9168 83.6588 54.3709C83.6588 52.7307 82.6085 51.8833 80.5347 51.8559ZM86.9714 58.6352L88.0488 56.2023L85.167 50.5712H86.0019L88.3719 55.3823L90.5265 50.5712H91.3883L87.7794 58.6352H86.9714ZM92.3578 58.6352V50.5712H94.5394C95.1168 50.5558 95.6866 50.7075 96.1822 51.0085C96.445 51.1961 96.6518 51.4535 96.7801 51.7524C96.9083 52.0514 96.953 52.3803 96.9094 52.7033C96.9551 53.0305 96.9116 53.3641 96.7834 53.6678C96.6551 53.9715 96.4472 54.2336 96.1822 54.4255C95.6866 54.7266 95.1168 54.8783 94.5394 54.8629H93.112V58.6352H92.3578ZM93.112 51.2272V54.2069H94.5125C95.5897 54.2069 96.1284 53.7148 96.1284 52.7033C96.1551 52.4788 96.1217 52.2512 96.0317 52.0443C95.9416 51.8374 95.7982 51.659 95.6167 51.5279C95.2867 51.3173 94.9019 51.2125 94.5125 51.2272H93.112ZM98.4984 58.6352V50.5712H99.2794V53.8788H103.831V50.5712H104.585V58.6352H103.831V54.5349H99.1986V58.6352H98.4984ZM106.578 50.5712H107.332V56.9677L112.719 50.2705V58.6352H111.938V52.266L106.551 58.9633L106.578 50.5712ZM115.95 58.6352V51.2272H113.85V50.5712H118.832V51.2272H116.731V58.6352H115.95ZM120.879 58.6352L121.983 56.2023L119.101 50.5712H119.99L122.36 55.3823L124.515 50.5712H125.269L121.66 58.6352H120.879ZM126.265 58.6352V50.5712H128.447C129.024 50.5558 129.594 50.7075 130.09 51.0085C130.352 51.1961 130.559 51.4535 130.688 51.7524C130.816 52.0514 130.861 52.3803 130.817 52.7033C130.863 53.0305 130.819 53.3641 130.691 53.6678C130.563 53.9715 130.355 54.2336 130.09 54.4255C129.594 54.7266 129.024 54.8783 128.447 54.8629H127.02V58.6352H126.265ZM127.02 51.2272V54.2069H128.42C129.497 54.2069 130.036 53.7148 130.036 52.7033C130.069 52.4784 130.038 52.2485 129.948 52.0405C129.857 51.8324 129.71 51.6547 129.524 51.5279C129.194 51.3173 128.809 51.2125 128.42 51.2272H127.02ZM132.406 58.6352V50.5712H133.187V53.8788H137.712V50.5712H138.493V58.6352H137.712V54.5349H133.187V58.6352H132.406ZM139.597 58.6352L143.152 50.4345L146.68 58.6352H145.899L144.795 55.9017H141.482L140.405 58.6352H139.597ZM141.778 55.3823H144.471L143.098 52.0746L141.778 55.3823ZM147.596 58.6352L149.75 55.0543C149.351 55.0604 148.955 54.9763 148.592 54.8082C148.249 54.6372 147.96 54.3721 147.757 54.0428C147.535 53.7033 147.422 53.3022 147.434 52.8947C147.443 52.5381 147.516 52.1861 147.649 51.8559C147.84 51.4732 148.14 51.1585 148.511 50.9539C149.023 50.675 149.601 50.5427 150.181 50.5712H152.012V58.6352H151.258V55.1909H150.558L148.457 58.7172L147.596 58.6352ZM151.258 54.4529V51.2272H150.181C148.888 51.2272 148.215 51.774 148.215 52.8401C148.215 53.9062 148.861 54.4529 150.1 54.4529H151.258ZM157.964 58.6352V50.5712H158.719V54.3435L162.247 50.5712H163.189L159.446 54.4802L163.27 58.6352H162.247L158.719 54.7262V58.6352H157.964ZM164.051 54.6169C164.053 54.0567 164.154 53.5013 164.347 52.9767C164.544 52.4684 164.837 52.0041 165.209 51.6099C165.595 51.215 166.052 50.8995 166.556 50.6805C167.113 50.4567 167.707 50.3453 168.306 50.3525C168.867 50.3521 169.424 50.4539 169.949 50.6532C170.459 50.8456 170.924 51.1411 171.318 51.5218C171.711 51.9024 172.024 52.3602 172.238 52.8674C172.483 53.4165 172.603 54.0145 172.589 54.6169C172.6 55.2191 172.48 55.8163 172.238 56.3663C172.024 56.8779 171.708 57.3389 171.309 57.72C170.911 58.1011 170.438 58.3941 169.922 58.5805C168.881 58.9818 167.731 58.9818 166.69 58.5805C166.182 58.381 165.715 58.0841 165.317 57.7058C164.914 57.3307 164.593 56.8744 164.374 56.3663C164.156 55.8099 164.046 55.2158 164.051 54.6169ZM164.859 54.6169C164.862 55.1123 164.954 55.6031 165.128 56.0657C165.293 56.5003 165.55 56.8924 165.882 57.2137C166.196 57.5412 166.572 57.8015 166.987 57.9791C167.408 58.1423 167.855 58.2257 168.306 58.2251C168.766 58.2254 169.222 58.1421 169.653 57.9791C170.061 57.8016 170.435 57.5517 170.757 57.2411C171.076 56.9034 171.323 56.5035 171.484 56.0657C171.761 55.3875 171.839 54.6429 171.71 53.9207C171.581 53.1986 171.25 52.5293 170.757 51.9926C170.442 51.6732 170.067 51.4221 169.653 51.2546C169.222 51.0916 168.766 51.0083 168.306 51.0085C167.704 51.0002 167.11 51.151 166.583 51.4459C166.062 51.751 165.633 52.1954 165.344 52.7307C165.014 53.3018 164.846 53.9548 164.859 54.6169ZM173.666 58.6352L174.77 50.2705L178.056 57.4325L181.341 50.2705L182.419 58.6352H181.719L180.964 52.676L178.056 58.9633L175.147 52.676L174.393 58.6352H173.666ZM183.873 58.6352V50.5712H189.96V58.6352H189.206V51.2272H184.654V58.6352H183.873ZM191.091 58.6352L194.619 50.4345L198.147 58.6352H197.366L196.262 55.9017H192.976L191.872 58.6352H191.091ZM193.246 55.3823H195.939L194.565 52.0746L193.246 55.3823ZM199.278 58.6352V50.5712H200.032V53.8788H204.503V50.5712H205.257V58.6352H204.503V54.5349H199.952V58.6352H199.278ZM207.358 50.5712H208.112V56.9677L213.498 50.2705V58.6352H212.583V52.266L207.196 58.9633L207.358 50.5712ZM215.276 58.6352L217.43 55.0543C217.031 55.0604 216.636 54.9763 216.272 54.8082C215.929 54.6372 215.64 54.3721 215.438 54.0428C215.215 53.7033 215.102 53.3022 215.114 52.8947C215.121 52.5348 215.204 52.1806 215.357 51.8559C215.535 51.4741 215.827 51.1587 216.192 50.9539C216.705 50.6776 217.281 50.5454 217.861 50.5712H219.693V58.6352H218.939V55.1909H218.238L216.165 58.7172L215.276 58.6352ZM218.939 54.4529V51.2272H217.861C216.569 51.2272 215.922 51.774 215.922 52.8401C215.922 53.9062 216.542 54.4529 217.781 54.4529H218.939Z" fill="#76716A"/>
<path d="M55.8644 0L71.7274 25.5043H41.752L55.8644 0Z" fill="#FAB437"/>
<path d="M41.7522 25.5039L33.7803 38.051H56.1339L71.7276 25.5312L41.7522 25.5039Z" fill="#CB4C18"/>
<path d="M33.7801 38.133L41.752 25.5039L0.545898 25.5586L6.90187 38.0237L33.7801 38.133Z" fill="#8E3D19"/>
<path d="M15.9785 37.9971L65.8567 38.0791L51.2595 50.7082L22.5769 50.5989L15.9785 37.9971Z" fill="#67342B"/>
<path d="M46.3301 38.0244L65.9367 38.0518L51.2587 50.7902L37.9004 50.6535L46.3301 38.0244Z" fill="#EC9C1E"/>
<path opacity="0.5" d="M13.2852 50.5439H30.3331H41.483L21.5264 66.9454L13.2852 50.5439Z" fill="#B1351A"/>
<path d="M55.8644 0L0.545898 25.559L41.752 25.5043L55.8644 0Z" fill="#F18700"/>
<path d="M30.2785 50.626L21.4717 66.9728L41.4284 50.6533L30.2785 50.626Z" fill="#EF7A00"/>
<path d="M13.2305 50.5713L30.2785 50.626L21.4717 66.9728L13.2305 50.5713Z" fill="#B1351A"/>
<path d="M81.5033 46.3344C81.9891 46.3344 82.4549 46.1385 82.7983 45.7899C83.1418 45.4413 83.3348 44.9685 83.3348 44.4755V34.7167H87.5092C90.0139 34.7167 91.4952 36.4114 92.8956 38.8443L96.316 44.4482C96.639 44.9678 97.073 45.407 97.5857 45.7335C98.0985 46.06 98.6771 46.2653 99.2785 46.3344H103.749C104.773 46.3344 105.042 45.5143 104.423 44.4482L99.5748 36.4388C98.4437 34.662 96.4776 32.1471 94.5654 31.7371C95.6757 31.4222 96.7022 30.8583 97.5691 30.0871C98.4361 29.316 99.1216 28.3572 99.5748 27.2813L103.803 19.3812C104.396 18.2605 104.18 17.4404 103.184 17.4404H98.686C98.1099 17.4992 97.5587 17.709 97.0865 18.0492C96.6144 18.3895 96.2374 18.8485 95.9928 19.3812L92.9764 24.8484C91.4144 27.746 89.7985 28.9488 87.59 28.9488H83.3078V19.3812C83.3151 18.8784 83.127 18.3929 82.7843 18.0296C82.4415 17.6664 81.9718 17.4547 81.4765 17.4404H77.9214C77.4261 17.4547 76.9562 17.6664 76.6135 18.0296C76.2708 18.3929 76.0828 18.8784 76.09 19.3812V44.3935C76.0828 44.8963 76.2708 45.3819 76.6135 45.7452C76.9562 46.1084 77.4261 46.3201 77.9214 46.3344H81.5033ZM105.311 44.4755C105.229 44.6899 105.202 44.922 105.231 45.1501C105.261 45.3782 105.347 45.595 105.482 45.7804C105.616 45.9657 105.794 46.1137 106 46.2106C106.205 46.3074 106.432 46.35 106.658 46.3344H110.482C111.013 46.3103 111.521 46.1141 111.933 45.7745C112.346 45.435 112.639 44.97 112.772 44.4482L114.091 39.3637H127.88V44.4482C127.877 44.6946 127.922 44.9392 128.012 45.1679C128.103 45.3966 128.237 45.6048 128.407 45.7803C128.578 45.9558 128.781 46.0952 129.005 46.1903C129.229 46.2854 129.469 46.3344 129.712 46.3344H133.375C133.86 46.3344 134.326 46.1385 134.67 45.7899C135.013 45.4413 135.206 44.9685 135.206 44.4755V19.2992C135.221 18.8297 135.055 18.3729 134.743 18.0258C134.431 17.6787 133.998 17.4687 133.536 17.4404H123.06C117.431 17.4404 111.829 18.8892 110.213 25.2858L105.311 44.4755ZM117.242 27.1993C117.503 26.0261 118.154 24.9801 119.086 24.238C120.019 23.4959 121.175 23.1031 122.359 23.1262H127.88V33.6779H115.626L117.242 27.1993ZM155.163 23.1262C158.96 23.1262 161.788 23.9463 161.788 28.5934C161.788 33.2405 158.96 34.0605 155.163 34.0605H148.079V22.9622L155.163 23.1262ZM142.558 17.4404C142.317 17.4403 142.078 17.4895 141.855 17.5849C141.633 17.6804 141.431 17.8201 141.263 17.996C141.095 18.1719 140.963 18.3804 140.876 18.6089C140.788 18.8375 140.747 19.0815 140.754 19.3266V44.4482C140.761 44.9416 140.955 45.4133 141.296 45.7648C141.638 46.1162 142.099 46.3203 142.585 46.3344H146.248C146.736 46.3272 147.202 46.1253 147.545 45.7724C147.887 45.4194 148.08 44.9437 148.079 44.4482V39.9104H157.371C164.777 39.9104 169.087 36.4388 169.087 28.6754C169.087 20.912 164.777 17.4404 157.371 17.4404H142.558ZM169.194 44.4755C169.106 44.6875 169.072 44.9191 169.097 45.148C169.123 45.3769 169.206 45.5953 169.338 45.7822C169.471 45.9691 169.649 46.118 169.855 46.2147C170.061 46.3115 170.288 46.3527 170.514 46.3344H174.338C174.872 46.3118 175.385 46.1165 175.801 45.7772C176.218 45.4379 176.517 44.9722 176.654 44.4482L177.947 39.3637H191.736V44.4482C191.733 44.6969 191.778 44.9438 191.87 45.1743C191.963 45.4048 192.099 45.6142 192.273 45.7901C192.446 45.966 192.652 46.1048 192.879 46.1983C193.106 46.2918 193.35 46.3381 193.595 46.3344H197.231C197.716 46.3344 198.182 46.1385 198.526 45.7899C198.869 45.4413 199.062 44.9685 199.062 44.4755V19.2992C199.077 18.8297 198.911 18.3729 198.599 18.0258C198.287 17.6787 197.854 17.4687 197.392 17.4404H186.943C181.287 17.4404 175.685 18.8892 174.069 25.2858L169.194 44.4755ZM181.098 27.1993C181.363 26.0286 182.016 24.9855 182.947 24.2442C183.878 23.5029 185.032 23.1083 186.215 23.1262H191.736V33.6779H179.401L181.098 27.1993ZM204.071 17.4404C203.829 17.4404 203.588 17.4894 203.364 17.5845C203.14 17.6796 202.937 17.819 202.767 17.9945C202.596 18.17 202.462 18.3782 202.372 18.6068C202.281 18.8355 202.236 19.0802 202.24 19.3266V21.2401C202.236 21.4865 202.281 21.7311 202.372 21.9598C202.462 22.1885 202.596 22.3967 202.767 22.5722C202.937 22.7477 203.14 22.887 203.364 22.9822C203.588 23.0773 203.829 23.1263 204.071 23.1262H212.743V44.4755C212.743 44.9685 212.936 45.4413 213.28 45.7899C213.623 46.1385 214.089 46.3344 214.575 46.3344H218.211C218.696 46.3344 219.162 46.1385 219.506 45.7899C219.849 45.4413 220.042 44.9685 220.042 44.4755V23.1262H228.741C228.984 23.1263 229.224 23.0773 229.448 22.9822C229.672 22.887 229.875 22.7477 230.046 22.5722C230.216 22.3967 230.35 22.1885 230.441 21.9598C230.531 21.7311 230.576 21.4865 230.572 21.2401V19.3266C230.576 19.0802 230.531 18.8355 230.441 18.6068C230.35 18.3782 230.216 18.17 230.046 17.9945C229.875 17.819 229.672 17.6796 229.448 17.5845C229.224 17.4894 228.984 17.4404 228.741 17.4404H204.071Z" fill="#F59D00"/>
</g>
<defs>
<clipPath id="clip0">
<rect width="230" height="67" fill="white" transform="translate(0.545898)"/>
</clipPath>
</defs>
</svg>
