<svg width="75" height="74" viewBox="0 0 75 74" fill="none" xmlns="http://www.w3.org/2000/svg">
<path d="M69.1523 33.3012H66.6861V13.5683C66.6861 12.8866 66.1336 12.3351 65.4525 12.3351H57.9821L55.5295 4.56501C55.4266 4.2407 55.1953 3.97359 54.8905 3.8255C54.5844 3.6771 54.231 3.66257 53.9132 3.78345L43.8693 7.61114L39.358 0.570377C39.1805 0.293062 38.8995 0.0976744 38.577 0.0293506C38.2555 -0.0429924 37.9176 0.0197666 37.644 0.202479L19.1265 12.3351H8.71908C3.9536 12.3403 0.0918117 16.2026 0.0859375 20.968V65.3668C0.0918117 70.1321 3.9536 73.9944 8.71908 74H65.4525C66.1336 74 66.6861 73.4475 66.6861 72.7665V57.9668H69.1523C71.8773 57.9668 74.0859 55.7581 74.0859 53.0341V38.2345C74.0859 35.5092 71.8773 33.3012 69.1523 33.3012ZM69.1523 35.7677C70.5148 35.7677 71.6191 36.8714 71.6191 38.2345C71.6191 39.5966 70.5148 40.7006 69.1523 40.7006H66.6861V35.7677H69.1523ZM64.2189 14.8018V27.1345H62.6567L58.7618 14.8018H64.2189ZM60.0708 27.1345H56.4756L53.0562 16.8781C52.8886 16.3745 52.4171 16.0341 51.886 16.0345C50.6333 16.0385 49.4306 15.5407 48.5473 14.6525L47.8242 13.9294C47.4841 13.589 46.9765 13.4774 46.5245 13.6444L10.0343 27.1345H8.71908C7.07462 27.1341 5.4985 26.4756 4.34376 25.3052L53.5713 6.55938L60.0708 27.1345ZM53.8758 27.1345H17.1457L46.6398 16.2317L46.803 16.3962C47.9268 17.5261 49.3969 18.2477 50.9783 18.444L53.8758 27.1345ZM37.9494 2.95058L41.5098 8.5114L12.7441 19.4658L37.9494 2.95058ZM8.71908 14.8018H15.3612L2.91202 22.958C2.68231 22.3196 2.5605 21.6466 2.55277 20.968C2.5571 17.5642 5.31547 14.8052 8.71908 14.8018ZM64.2189 71.5329H8.71908C5.31547 71.5289 2.5571 68.7703 2.55277 65.3668V27.0111C2.56452 27.0219 2.57719 27.0321 2.58832 27.0445C2.68478 27.1406 2.78681 27.2291 2.88729 27.3206C2.98684 27.4118 3.09412 27.5163 3.20387 27.6078C3.31393 27.6993 3.41998 27.7729 3.52819 27.8545C3.6367 27.9361 3.75295 28.0295 3.87105 28.1117C3.98946 28.1924 4.10416 28.2552 4.22041 28.3272C4.33665 28.3989 4.46032 28.4799 4.59017 28.5492C4.72002 28.6178 4.84307 28.6722 4.97013 28.7353C5.0972 28.7977 5.21716 28.8586 5.34763 28.9177C5.4784 28.9767 5.62804 29.0225 5.76809 29.0729C5.90876 29.1236 6.0148 29.1718 6.14465 29.2108C6.29955 29.2605 6.45938 29.2955 6.6186 29.3344C6.74227 29.3638 6.85481 29.4015 6.97538 29.4259C7.15686 29.464 7.34545 29.4859 7.52941 29.5122C7.63267 29.5261 7.73315 29.5477 7.83795 29.5589C8.13042 29.5879 8.42475 29.6018 8.71908 29.6015H10.3233L10.341 29.6485L10.473 29.6015H64.2189V40.7006H50.6524C45.8851 40.7006 42.0193 44.5657 42.0193 49.3338C42.0193 54.1017 45.8851 57.9668 50.6524 57.9668H64.2189V71.5329ZM71.6191 53.0341C71.6191 54.3963 70.5148 55.5003 69.1523 55.5003H50.6524C47.247 55.5003 44.4861 52.7395 44.4861 49.3338C44.4861 45.9278 47.247 43.1677 50.6524 43.1677H69.1523C69.4503 43.1646 69.7459 43.1343 70.0383 43.0774C70.1082 43.0654 70.1778 43.0514 70.2467 43.0348C70.5256 42.9745 70.7989 42.8891 71.0629 42.7816L71.105 42.7615C71.2815 42.6866 71.4528 42.6001 71.6191 42.5052V53.0341Z" fill="#F18700"/>
<path d="M50.6522 45.6338C48.609 45.6338 46.9521 47.2899 46.9521 49.3335C46.9521 51.3764 48.609 53.0338 50.6522 53.0338C52.6955 53.0338 54.352 51.3764 54.352 49.3335C54.352 47.2899 52.6955 45.6338 50.6522 45.6338ZM50.6522 50.567C49.9715 50.567 49.419 50.0146 49.419 49.3335C49.419 48.6521 49.9715 48.1002 50.6522 48.1002C51.3333 48.1002 51.8858 48.6521 51.8858 49.3335C51.8858 50.0146 51.3333 50.567 50.6522 50.567Z" fill="#F18700"/>
</svg>
