<svg width="16" height="20" viewBox="0 0 16 20" fill="none" xmlns="http://www.w3.org/2000/svg">
<path d="M2.51748 13.8667L5.42491 12.4339C5.69913 12.2986 5.86957 12.0268 5.86957 11.7244V10.7101C5.79987 10.6261 5.72652 10.5304 5.65074 10.4248C5.27365 9.8998 4.97144 9.3154 4.7517 8.6851C4.32226 8.491 4.04348 8.0725 4.04348 7.6V6.4C4.04348 6.1111 4.15304 5.8312 4.34783 5.6125V4.0168C4.33078 3.8518 4.26383 2.8696 4.98452 2.0593C5.60965 1.3564 6.62404 1 8 1C9.37596 1 10.3903 1.3564 11.0155 2.059C11.7362 2.8693 11.6692 3.8518 11.6522 4.0168V5.6125C11.847 5.8312 11.9565 6.1111 11.9565 6.4V7.6C11.9565 7.9651 11.7882 8.3056 11.5009 8.5327C11.2221 9.6208 10.6387 10.4407 10.4348 10.7038V11.6965C10.4348 11.9869 10.5955 12.2533 10.8539 12.3925L13.569 13.8523C14.4519 14.3272 15 15.2374 15 16.2286V17.2C15 18.6238 10.4211 19 8 19C5.57891 19 1 18.6238 1 17.2V16.2871C1 15.2557 1.58161 14.3281 2.51748 13.8667ZM1.6087 17.2C1.6087 17.6071 3.86452 18.4 8 18.4C12.1355 18.4 14.3913 17.6071 14.3913 17.2V16.2286C14.3913 15.4573 13.9646 14.7484 13.2777 14.3794L10.5626 12.9196C10.1082 12.6751 9.82609 12.2062 9.82609 11.6965V10.4908L9.897 10.4074C9.9043 10.3987 10.6503 9.5092 10.9348 8.2879L10.9625 8.1691L11.0663 8.1031C11.2425 7.9909 11.3478 7.8028 11.3478 7.6V6.4C11.3478 6.2317 11.2754 6.0748 11.1439 5.9575L11.0435 5.8684V4L11.0462 3.9607C11.0471 3.9526 11.1506 3.121 10.5577 2.4544C10.0534 1.8874 9.19274 1.6 8 1.6C6.81152 1.6 5.95265 1.8853 5.44774 2.4484C4.85517 3.1087 4.95317 3.9535 4.95378 3.9607L4.95652 5.8684L4.85609 5.9578C4.72461 6.0748 4.65217 6.2317 4.65217 6.4V7.6C4.65217 7.8619 4.82626 8.0911 5.08496 8.1697L5.23652 8.2156L5.28522 8.3641C5.48883 8.9884 5.77887 9.565 6.14774 10.078C6.23813 10.2043 6.32609 10.3162 6.40248 10.4017L6.47826 10.4869V11.7244C6.47826 12.2554 6.17909 12.7327 5.6973 12.9703L2.78987 14.4031C2.06126 14.7622 1.6087 15.484 1.6087 16.2871V17.2Z" fill="#F18700" stroke="#F18700" stroke-width="0.5"/>
</svg>
