<svg width="17" height="17" viewBox="0 0 17 17" fill="none" xmlns="http://www.w3.org/2000/svg">
<path d="M9.87423 8.34859L15.7149 2.50771C16.095 2.12779 16.095 1.5135 15.7149 1.13358C15.335 0.753652 14.7207 0.753652 14.3408 1.13358L8.49992 6.97446L2.65921 1.13358C2.27911 0.753652 1.665 0.753652 1.28508 1.13358C0.904974 1.5135 0.904974 2.12779 1.28508 2.50771L7.12578 8.34859L1.28508 14.1895C0.904974 14.5694 0.904974 15.1837 1.28508 15.5636C1.47442 15.7531 1.72337 15.8483 1.97215 15.8483C2.22092 15.8483 2.4697 15.7531 2.65921 15.5636L8.49992 9.72273L14.3408 15.5636C14.5303 15.7531 14.7791 15.8483 15.0279 15.8483C15.2766 15.8483 15.5254 15.7531 15.7149 15.5636C16.095 15.1837 16.095 14.5694 15.7149 14.1895L9.87423 8.34859Z" fill="#F18700" stroke="#F18700" stroke-width="0.999182"/>
</svg>
