<svg width="31" height="30" viewBox="0 0 31 30" fill="none" xmlns="http://www.w3.org/2000/svg">
<g clip-path="url(#clip0)">
<path d="M24.255 18.584C23.6408 17.9445 22.9 17.6026 22.1149 17.6026C21.3361 17.6026 20.589 17.9382 19.9495 18.5777L17.9486 20.5722C17.784 20.4835 17.6194 20.4012 17.4611 20.3189C17.2332 20.2049 17.0179 20.0973 16.8343 19.9833C14.9601 18.793 13.2568 17.2417 11.6233 15.2345C10.8318 14.2341 10.2999 13.392 9.9137 12.5372C10.4329 12.0624 10.9141 11.5685 11.3827 11.0936C11.5599 10.9163 11.7372 10.7327 11.9145 10.5554C13.2442 9.22576 13.2442 7.50353 11.9145 6.17388L10.186 4.44532C9.98969 4.24904 9.78707 4.04642 9.59712 3.84381C9.21722 3.45124 8.81832 3.04601 8.40676 2.66611C7.79258 2.05827 7.05811 1.73535 6.28564 1.73535C5.51317 1.73535 4.76603 2.05827 4.13286 2.66611C4.12653 2.67244 4.12653 2.67244 4.1202 2.67878L1.96742 4.85055C1.15696 5.66101 0.694744 6.64875 0.593437 7.79479C0.441476 9.64365 0.986002 11.3659 1.40389 12.4929C2.42963 15.2599 3.9619 17.8242 6.24765 20.5722C9.02094 23.8837 12.3577 26.4986 16.1694 28.3412C17.6257 29.0313 19.5696 29.8481 21.7413 29.9874C21.8743 29.9937 22.0136 30.0001 22.1402 30.0001C23.6028 30.0001 24.8312 29.4746 25.7936 28.4298C25.7999 28.4172 25.8126 28.4108 25.8189 28.3982C26.1482 27.9993 26.5281 27.6384 26.927 27.2521C27.1993 26.9925 27.4779 26.7203 27.7501 26.4353C28.377 25.7832 28.7062 25.0234 28.7062 24.2446C28.7062 23.4594 28.3706 22.706 27.7311 22.0728L24.255 18.584ZM26.5218 25.2513C26.5154 25.2513 26.5154 25.2576 26.5218 25.2513C26.2748 25.5172 26.0216 25.7578 25.7493 26.0238C25.3377 26.4163 24.9198 26.8279 24.5273 27.2901C23.8878 27.9739 23.1343 28.2969 22.1466 28.2969C22.0516 28.2969 21.9503 28.2969 21.8553 28.2905C19.9748 28.1702 18.2272 27.4357 16.9166 26.8089C13.3328 25.074 10.186 22.611 7.57097 19.4895C5.41186 16.8871 3.96824 14.4811 3.01215 11.8977C2.4233 10.3211 2.20802 9.09279 2.303 7.93409C2.36631 7.19328 2.65124 6.57911 3.17677 6.05357L5.33588 3.89446C5.64614 3.6032 5.97539 3.44491 6.2983 3.44491C6.6972 3.44491 7.02012 3.68552 7.22273 3.88813C7.22906 3.89446 7.23539 3.90079 7.24173 3.90713C7.62796 4.26803 7.9952 4.6416 8.38143 5.0405C8.57771 5.24312 8.78033 5.44573 8.98294 5.65468L10.7115 7.38323C11.3827 8.05439 11.3827 8.6749 10.7115 9.34606C10.5279 9.52968 10.3506 9.7133 10.167 9.89059C9.63511 10.4351 9.12857 10.9416 8.57772 11.4355C8.56505 11.4482 8.55239 11.4545 8.54606 11.4672C8.00153 12.0117 8.10284 12.5436 8.21681 12.9045C8.22314 12.9235 8.22947 12.9425 8.2358 12.9615C8.68535 14.0505 9.31852 15.0763 10.2809 16.2983L10.2873 16.3046C12.0348 18.4574 13.8774 20.1353 15.9098 21.4206C16.1694 21.5852 16.4354 21.7182 16.6886 21.8448C16.9166 21.9588 17.1318 22.0665 17.3155 22.1804C17.3408 22.1931 17.3661 22.2121 17.3914 22.2247C17.6067 22.3324 17.8093 22.383 18.0183 22.383C18.5438 22.383 18.8731 22.0538 18.9807 21.9462L21.1461 19.7807C21.3614 19.5654 21.7033 19.3058 22.1022 19.3058C22.4948 19.3058 22.8177 19.5528 23.014 19.768C23.0203 19.7744 23.0203 19.7744 23.0267 19.7807L26.5154 23.2695C27.1676 23.9153 27.1676 24.5801 26.5218 25.2513Z" fill="black"/>
<path d="M16.7583 7.13611C18.4172 7.4147 19.9241 8.19983 21.1272 9.40286C22.3302 10.6059 23.109 12.1128 23.3939 13.7717C23.4636 14.1896 23.8245 14.4809 24.236 14.4809C24.2867 14.4809 24.331 14.4746 24.3817 14.4682C24.8502 14.3922 25.1605 13.949 25.0845 13.4805C24.7426 11.4733 23.7928 9.64346 22.3428 8.1935C20.8929 6.74354 19.063 5.79379 17.0559 5.45187C16.5873 5.37589 16.1504 5.68615 16.0681 6.14836C15.9858 6.61058 16.2897 7.06013 16.7583 7.13611Z" fill="#F18700"/>
<path d="M30.5103 13.2336C29.9468 9.92848 28.3892 6.92092 25.9958 4.52754C23.6024 2.13415 20.5949 0.576553 17.2897 0.0130316C16.8275 -0.0692806 16.3906 0.247305 16.3083 0.709519C16.2323 1.17807 16.5426 1.61495 17.0111 1.69727C19.9617 2.19747 22.6527 3.59678 24.7928 5.73056C26.9329 7.87068 28.3259 10.5617 28.8261 13.5122C28.8957 13.9301 29.2566 14.2214 29.6682 14.2214C29.7189 14.2214 29.7632 14.215 29.8138 14.2087C30.2761 14.1391 30.5926 13.6958 30.5103 13.2336Z" fill="#F18700"/>
</g>
<defs>
<clipPath id="clip0">
<rect width="30" height="30" fill="white" transform="translate(0.545898)"/>
</clipPath>
</defs>
</svg>
