<svg width="42" height="42" viewBox="0 0 42 42" fill="none" xmlns="http://www.w3.org/2000/svg">
<g clip-path="url(#clip0)">
<path d="M32.8401 19.9403C32.4699 19.9403 32.1699 20.2402 32.1699 20.6105V32.1702H24.3507C23.9806 32.1702 23.6805 32.4702 23.6805 32.8404V40.6596H2.68051V1.34043H32.2448C32.3565 1.55543 32.5811 1.70234 32.8401 1.70234C33.2102 1.70234 33.5103 1.40235 33.5103 1.03213V0.670213C33.5103 0.299987 33.2102 0 32.8401 0H2.0103C1.64016 0 1.34009 0.299987 1.34009 0.670213V41.3298C1.34009 41.7 1.64016 42 2.0103 42H24.3507C24.3732 42 24.3955 41.9988 24.4177 41.9966C24.4343 41.9949 24.4505 41.9921 24.4667 41.9893C24.472 41.9884 24.4773 41.9879 24.4826 41.987C24.5017 41.9831 24.5204 41.9781 24.5389 41.9728C24.5412 41.9721 24.5437 41.9717 24.5461 41.971C24.5647 41.9653 24.5827 41.9586 24.6005 41.9515C24.6029 41.9505 24.6053 41.9498 24.6077 41.9489C24.6246 41.9418 24.6409 41.9339 24.6571 41.9256C24.6604 41.9238 24.6638 41.9224 24.6671 41.9206C24.6818 41.9128 24.6959 41.9039 24.71 41.895C24.7144 41.8922 24.7191 41.8897 24.7234 41.8868C24.7365 41.878 24.7489 41.8685 24.7613 41.8588C24.7662 41.855 24.7713 41.8516 24.7762 41.8476C24.7913 41.8352 24.8057 41.822 24.8196 41.8084C24.8212 41.8067 24.8231 41.8055 24.8247 41.8038L33.3141 33.3144C33.3154 33.3131 33.3165 33.3116 33.3178 33.3103C33.3318 33.296 33.3453 33.2813 33.3581 33.2658C33.3616 33.2616 33.3645 33.257 33.3679 33.2528C33.378 33.2398 33.3881 33.2267 33.3973 33.213C33.3998 33.2093 33.4018 33.2054 33.4042 33.2016C33.4137 33.187 33.4229 33.172 33.4311 33.1566C33.4326 33.1539 33.4337 33.151 33.4351 33.1482C33.4437 33.1315 33.4519 33.1147 33.4592 33.0973C33.46 33.0954 33.4605 33.0933 33.4613 33.0914C33.4687 33.0732 33.4755 33.0547 33.4813 33.0358C33.482 33.0335 33.4823 33.0311 33.483 33.0289C33.4885 33.0103 33.4934 32.9915 33.4972 32.9724C33.4983 32.967 33.4988 32.9615 33.4998 32.9561C33.5025 32.9399 33.5054 32.9239 33.507 32.9074C33.5092 32.8852 33.5104 32.8629 33.5104 32.8404V20.6105C33.5103 20.2402 33.2102 19.9403 32.8401 19.9403ZM31.2221 33.5106L25.0209 39.7118V33.5106H31.2221Z" fill="#F18700"/>
<path d="M40.6597 8.55602C40.6597 7.65883 40.3123 6.81731 39.6815 6.18632L37.154 3.65882C36.9174 3.42237 36.6512 3.22559 36.3636 3.07216C35.8841 2.8164 35.3452 2.68066 34.7844 2.68066C34.215 2.68066 33.6683 2.82105 33.1834 3.08449C32.9043 3.23623 32.6454 3.42844 32.4148 3.65891L29.2554 6.81829L26.9005 9.17324L8.64035 27.4334L8.63651 27.4376C8.63323 27.441 8.63012 27.4445 8.62701 27.448C8.62495 27.4503 8.62288 27.4527 8.62078 27.4549C8.5677 27.5129 8.52445 27.5793 8.49451 27.6522L5.915 33.9167C5.91461 33.9176 5.91421 33.9186 5.91381 33.9195C5.91302 33.9214 5.91223 33.9233 5.91151 33.9253L4.07138 38.3942C3.96834 38.6445 4.02589 38.932 4.21722 39.1234C4.23321 39.1394 4.24992 39.1544 4.26726 39.1686C4.38834 39.2675 4.53865 39.3196 4.69128 39.3196C4.77716 39.3196 4.86384 39.3031 4.94632 39.2692L9.41708 37.4282L9.42164 37.4264L15.6883 34.8461C15.761 34.816 15.8274 34.773 15.8853 34.7199C15.8873 34.7181 15.8893 34.7163 15.8912 34.7146C15.8952 34.7111 15.8991 34.7077 15.9029 34.704L15.907 34.7002L34.1669 16.4403L39.6814 10.9257C40.3123 10.2947 40.6597 9.45321 40.6597 8.55602ZM9.32495 36.0164L7.32396 34.0154L9.48696 28.7624C9.74513 28.8961 9.98533 29.0706 10.1968 29.2819C10.8301 29.9153 11.1235 30.7754 10.9816 31.5825C10.9438 31.7977 11.0133 32.0179 11.1678 32.1725C11.3223 32.3269 11.5423 32.3966 11.7577 32.3587C12.565 32.2169 13.425 32.5102 14.0583 33.1435C14.2697 33.355 14.4443 33.5952 14.578 33.8533L9.32495 36.0164ZM26.9006 16.4399C27.0314 16.5707 27.203 16.6361 27.3745 16.6361C27.546 16.6361 27.7175 16.5707 27.8484 16.4399L30.5339 13.7543L32.7454 15.9659L15.6643 33.0472C15.4839 32.7395 15.2631 32.4528 15.0061 32.1958C14.4807 31.6703 13.8433 31.3044 13.1679 31.1204L25.321 18.9675C25.5827 18.7056 25.5827 18.2813 25.321 18.0196C25.0592 17.758 24.6348 17.758 24.3732 18.0196L12.22 30.1725C12.0359 29.497 11.67 28.8598 11.1445 28.3343C10.8875 28.0773 10.6009 27.8565 10.2932 27.6763L27.3744 10.5951L29.5859 12.8066L26.9004 15.4921C26.6389 15.7537 26.6389 16.178 26.9006 16.4399ZM28.3223 9.64703L29.7293 8.24012L35.1003 13.6111L33.6933 15.018L28.3223 9.64703ZM6.77108 35.3583L7.9822 36.5694L5.92331 37.4172L6.77108 35.3583ZM39.3096 8.75637C39.2647 9.21944 39.0641 9.6473 38.7337 9.97767L36.0482 12.6633L30.6772 7.29226L33.3628 4.60668C33.411 4.55851 33.4611 4.51347 33.5127 4.4712C33.5269 4.45951 33.5418 4.44883 33.5568 4.43815C33.5652 4.43211 33.5737 4.42606 33.582 4.41982C33.5898 4.41398 33.5976 4.40807 33.6054 4.40216C33.6275 4.38539 33.6496 4.36863 33.6724 4.35343C33.6984 4.33619 33.7253 4.32069 33.7523 4.30519C33.7598 4.30085 33.7674 4.29651 33.7749 4.29212C33.7831 4.28736 33.7912 4.28242 33.7992 4.27748C33.8128 4.26918 33.8264 4.26088 33.8403 4.25343C33.889 4.22769 33.9392 4.20473 33.9898 4.1831C33.9939 4.18139 33.9978 4.17947 34.0018 4.17755C34.006 4.17547 34.0103 4.17339 34.0147 4.17157C34.2551 4.07283 34.5156 4.02091 34.7845 4.02091C35.0537 4.02091 35.3142 4.07274 35.5547 4.17166C35.5584 4.17318 35.5621 4.17496 35.5657 4.17674C35.5684 4.1781 35.5712 4.17945 35.574 4.18069C35.6266 4.20294 35.6785 4.22689 35.729 4.25361C35.7412 4.26008 35.7531 4.26735 35.765 4.27461C35.7731 4.27958 35.7813 4.28455 35.7895 4.28926C35.7951 4.29252 35.8008 4.29575 35.8064 4.29899C35.8369 4.31649 35.8674 4.33399 35.8968 4.35352C35.9182 4.36772 35.9388 4.38337 35.9594 4.39901C35.9674 4.40502 35.9753 4.41103 35.9832 4.41696C35.9917 4.42328 36.0003 4.42943 36.0089 4.43558C36.025 4.4471 36.0411 4.45862 36.0565 4.4712C36.1081 4.51347 36.1582 4.55842 36.2063 4.60659L38.7338 7.13409C39.0642 7.46455 39.2648 7.89242 39.3097 8.35549C39.3162 8.42162 39.3194 8.48846 39.3194 8.55584C39.3194 8.62322 39.3161 8.69024 39.3096 8.75637Z" fill="black"/>
<path d="M40.6597 8.55602C40.6597 7.65883 40.3123 6.81731 39.6815 6.18632L37.154 3.65882C36.9174 3.42237 36.6512 3.22559 36.3636 3.07216C35.8841 2.8164 35.3452 2.68066 34.7844 2.68066C34.215 2.68066 33.6683 2.82105 33.1834 3.08449C32.9043 3.23623 32.6454 3.42844 32.4148 3.65891L29.2554 6.81829L26.9005 9.17324L8.64035 27.4334L8.63651 27.4376C8.63323 27.441 8.63012 27.4445 8.62701 27.448C8.62495 27.4503 8.62288 27.4527 8.62078 27.4549C8.5677 27.5129 8.52445 27.5793 8.49451 27.6522L5.915 33.9167C5.91461 33.9176 5.91421 33.9186 5.91381 33.9195C5.91302 33.9214 5.91223 33.9233 5.91151 33.9253L4.07138 38.3942C3.96834 38.6445 4.02589 38.932 4.21722 39.1234C4.23321 39.1394 4.24992 39.1544 4.26726 39.1686C4.38834 39.2675 4.53865 39.3196 4.69128 39.3196C4.77716 39.3196 4.86384 39.3031 4.94632 39.2692L9.41708 37.4282L9.42164 37.4264L15.6883 34.8461C15.761 34.816 15.8274 34.773 15.8853 34.7199C15.8873 34.7181 15.8893 34.7163 15.8912 34.7146C15.8952 34.7111 15.8991 34.7077 15.9029 34.704L15.907 34.7002L34.1669 16.4403L39.6814 10.9257C40.3123 10.2947 40.6597 9.45321 40.6597 8.55602ZM9.32495 36.0164L7.32396 34.0154L9.48696 28.7624C9.74513 28.8961 9.98533 29.0706 10.1968 29.2819C10.8301 29.9153 11.1235 30.7754 10.9816 31.5825C10.9438 31.7977 11.0133 32.0179 11.1678 32.1725C11.3223 32.3269 11.5423 32.3966 11.7577 32.3587C12.565 32.2169 13.425 32.5102 14.0583 33.1435C14.2697 33.355 14.4443 33.5952 14.578 33.8533L9.32495 36.0164ZM26.9006 16.4399C27.0314 16.5707 27.203 16.6361 27.3745 16.6361C27.546 16.6361 27.7175 16.5707 27.8484 16.4399L30.5339 13.7543L32.7454 15.9659L15.6643 33.0472C15.4839 32.7395 15.2631 32.4528 15.0061 32.1958C14.4807 31.6703 13.8433 31.3044 13.1679 31.1204L25.321 18.9675C25.5827 18.7056 25.5827 18.2813 25.321 18.0196C25.0592 17.758 24.6348 17.758 24.3732 18.0196L12.22 30.1725C12.0359 29.497 11.67 28.8598 11.1445 28.3343C10.8875 28.0773 10.6009 27.8565 10.2932 27.6763L27.3744 10.5951L29.5859 12.8066L26.9004 15.4921C26.6389 15.7537 26.6389 16.178 26.9006 16.4399ZM28.3223 9.64703L29.7293 8.24012L35.1003 13.6111L33.6933 15.018L28.3223 9.64703ZM6.77108 35.3583L7.9822 36.5694L5.92331 37.4172L6.77108 35.3583ZM39.3096 8.75637C39.2647 9.21944 39.0641 9.6473 38.7337 9.97767L36.0482 12.6633L30.6772 7.29226L33.3628 4.60668C33.411 4.55851 33.4611 4.51347 33.5127 4.4712C33.5269 4.45951 33.5418 4.44883 33.5568 4.43815C33.5652 4.43211 33.5737 4.42606 33.582 4.41982C33.5898 4.41398 33.5976 4.40807 33.6054 4.40216C33.6275 4.38539 33.6496 4.36863 33.6724 4.35343C33.6984 4.33619 33.7253 4.32069 33.7523 4.30519C33.7598 4.30085 33.7674 4.29651 33.7749 4.29212C33.7831 4.28736 33.7912 4.28242 33.7992 4.27748C33.8128 4.26918 33.8264 4.26088 33.8403 4.25343C33.889 4.22769 33.9392 4.20473 33.9898 4.1831C33.9939 4.18139 33.9978 4.17947 34.0018 4.17755C34.006 4.17547 34.0103 4.17339 34.0147 4.17157C34.2551 4.07283 34.5156 4.02091 34.7845 4.02091C35.0537 4.02091 35.3142 4.07274 35.5547 4.17166C35.5584 4.17318 35.5621 4.17496 35.5657 4.17674C35.5684 4.1781 35.5712 4.17945 35.574 4.18069C35.6266 4.20294 35.6785 4.22689 35.729 4.25361C35.7412 4.26008 35.7531 4.26735 35.765 4.27461C35.7731 4.27958 35.7813 4.28455 35.7895 4.28926C35.7951 4.29252 35.8008 4.29575 35.8064 4.29899C35.8369 4.31649 35.8674 4.33399 35.8968 4.35352C35.9182 4.36772 35.9388 4.38337 35.9594 4.39901C35.9674 4.40502 35.9753 4.41103 35.9832 4.41696C35.9917 4.42328 36.0003 4.42943 36.0089 4.43558C36.025 4.4471 36.0411 4.45862 36.0565 4.4712C36.1081 4.51347 36.1582 4.55842 36.2063 4.60659L38.7338 7.13409C39.0642 7.46455 39.2648 7.89242 39.3097 8.35549C39.3162 8.42162 39.3194 8.48846 39.3194 8.55584C39.3194 8.62322 39.3161 8.69024 39.3096 8.75637Z" stroke="black"/>
<rect x="11.1" y="6.2998" width="12.6" height="1.5" rx="0.75" fill="black"/>
<rect x="11.1" y="11.7002" width="12.6" height="1.5" rx="0.75" fill="black"/>
</g>
<defs>
<clipPath id="clip0">
<rect width="42" height="42" rx="4" fill="white"/>
</clipPath>
</defs>
</svg>
