<svg width="74" height="74" viewBox="0 0 74 74" fill="none" xmlns="http://www.w3.org/2000/svg">
<path d="M10.9402 41.9936C10.9402 41.3413 10.3213 40.8128 9.55761 40.8128H5.95113H2.76514V8.98455C2.76514 5.33273 6.24368 2.3617 10.5195 2.3617H49.7756C54.0513 2.3617 57.5298 5.33273 57.5298 8.98455V54.049C57.5298 54.7013 58.1486 55.2299 58.9124 55.2299C59.6763 55.2296 60.2949 54.7012 60.2949 54.049V8.98455C60.2949 4.03048 55.5761 0 49.7756 0H10.5195C4.71898 0 0 4.03048 0 8.98455V41.9935C0 42.6458 0.618838 43.1743 1.38257 43.1743H9.55761C10.321 43.1745 10.9396 42.6462 10.9402 41.9936Z" fill="#F18700"/>
<path d="M72.6175 57.5914H58.9127H28.6759C27.9122 57.5914 27.2934 58.12 27.2934 58.7723V61.1134C27.2934 62.6137 25.8641 63.8344 24.1075 63.8344C23.3438 63.8344 22.725 64.3629 22.725 65.0152C22.725 65.6675 23.3438 66.1961 24.1075 66.1961C27.389 66.1961 30.0585 63.9161 30.0585 61.1134V59.9531H71.2349V65.0152C71.2349 68.667 67.7564 71.6381 63.4807 71.6381H24.2244C19.9488 71.6381 16.4702 68.667 16.4702 65.0152V12.8864C16.4702 10.0837 13.8008 7.80371 10.5193 7.80371C9.75556 7.80371 9.13672 8.33226 9.13672 8.98456C9.13672 9.04502 9.14372 9.10391 9.15405 9.16201C9.25451 9.72976 9.82653 10.1654 10.5193 10.1654C12.2759 10.1654 13.7051 11.3861 13.7051 12.8864V41.9941V65.0154C13.7051 69.9696 18.4241 73.9999 24.2244 73.9999H63.4805C69.2811 73.9999 73.9999 69.9694 73.9999 65.0154V58.7724C74 58.1201 73.381 57.5914 72.6175 57.5914Z" fill="#F18700"/>
<path d="M49.6947 49.3638H24.3044C23.5407 49.3638 22.9219 49.8923 22.9219 50.5446C22.9219 51.1969 23.5407 51.7254 24.3044 51.7254H49.6947C50.4584 51.7254 51.0772 51.1969 51.0772 50.5446C51.0772 49.8923 50.4584 49.3638 49.6947 49.3638Z" fill="#F18700"/>
<path d="M49.6947 41.1372H24.3044C23.5407 41.1372 22.9219 41.6658 22.9219 42.3181C22.9219 42.9704 23.5407 43.4989 24.3044 43.4989H49.6947C50.4584 43.4989 51.0772 42.9704 51.0772 42.3181C51.0772 41.6658 50.4584 41.1372 49.6947 41.1372Z" fill="#F18700"/>
<path d="M49.6947 32.9097H24.3044C23.5407 32.9097 22.9219 33.4382 22.9219 34.0905C22.9219 34.7428 23.5407 35.2714 24.3044 35.2714H49.6947C50.4584 35.2714 51.0772 34.7428 51.0772 34.0905C51.0772 33.4382 50.4584 32.9097 49.6947 32.9097Z" fill="#F18700"/>
<path d="M49.6947 24.6816H24.3044C23.5407 24.6816 22.9219 25.2102 22.9219 25.8625C22.9219 26.5148 23.5407 27.0433 24.3044 27.0433H49.6947C50.4584 27.0433 51.0772 26.5148 51.0772 25.8625C51.0772 25.2102 50.4584 24.6816 49.6947 24.6816Z" fill="#F18700"/>
<path d="M48.4972 9.40839C48.4972 8.75609 47.8783 8.22754 47.1146 8.22754H21.7244C20.9606 8.22754 20.3418 8.75609 20.3418 9.40839C20.3418 10.0607 20.9606 10.5892 21.7244 10.5892H47.1146C47.8783 10.5892 48.4972 10.0605 48.4972 9.40839Z" fill="#F18700"/>
<path d="M49.6947 16.4551H24.3044C23.5407 16.4551 22.9219 16.9836 22.9219 17.6359C22.9219 18.2882 23.5407 18.8168 24.3044 18.8168H49.6947C50.4584 18.8168 51.0772 18.2882 51.0772 17.6359C51.0772 16.9836 50.4584 16.4551 49.6947 16.4551Z" fill="#F18700"/>
</svg>
