<svg width="16" height="15" viewBox="0 0 16 15" fill="none" xmlns="http://www.w3.org/2000/svg">
<g clip-path="url(#clip0)">
<path d="M15.0432 5.83052C14.9503 5.53983 14.6953 5.33429 14.3932 5.30614L10.2912 4.92985L8.66926 1.09666C8.54979 0.816045 8.2774 0.634766 7.97474 0.634766C7.67197 0.634766 7.39958 0.816617 7.28011 1.09792L5.65823 4.93053L1.5556 5.30671C1.2542 5.33429 0.999148 5.53983 0.906198 5.83052C0.812794 6.12121 0.899396 6.43925 1.12724 6.64056L4.22816 9.38561L3.31373 13.4513C3.24696 13.7502 3.36202 14.0588 3.60788 14.2388C3.73903 14.3363 3.89444 14.3851 4.04985 14.3851C4.18417 14.3851 4.31793 14.3489 4.43741 14.2764L7.97474 12.1407L11.5114 14.2758C11.7702 14.4326 12.0964 14.4189 12.3416 14.2395C12.5873 14.0595 12.7025 13.7507 12.6356 13.4519L11.7213 9.3863L14.8222 6.64113C15.05 6.43994 15.1367 6.12178 15.0432 5.83052Z" fill="#F18700"/>
<path d="M3.87193 14.6975C3.70847 14.6975 3.54683 14.6463 3.40888 14.5456C3.15191 14.3582 3.03186 14.035 3.1018 13.7225L4.05761 9.47243L0.816129 6.60229C0.577858 6.39172 0.486835 6.05983 0.584659 5.75541C0.682484 5.45167 0.94864 5.23606 1.26376 5.20665L5.55331 4.81353L7.2483 0.807195C7.37333 0.512845 7.65808 0.322754 7.97445 0.322754C8.29082 0.322754 8.57557 0.512845 8.70059 0.806508L10.3956 4.81353L14.6845 5.20665C15.0003 5.23537 15.2664 5.4511 15.3642 5.75484C15.4621 6.05914 15.3716 6.39172 15.1327 6.60172L11.8919 9.47117L12.8477 13.7213C12.9177 14.0338 12.7976 14.3569 12.5407 14.5444C12.285 14.7312 11.9439 14.7469 11.6733 14.5832L7.97445 12.3518L4.27615 14.5844C4.15112 14.6601 4.01181 14.6975 3.87193 14.6975ZM7.97445 11.3906C8.11501 11.3906 8.25421 11.4287 8.37935 11.5037L11.8696 13.6113L10.9676 9.59924C10.9032 9.31301 10.9992 9.01546 11.2177 8.82239L14.2784 6.11167L10.2291 5.74042C9.93876 5.71421 9.68734 5.52984 9.57342 5.25792L7.97445 1.47715L6.37411 5.25849C6.26087 5.52915 6.00957 5.71352 5.71859 5.73984L1.66991 6.1111L4.73048 8.8217C4.9497 9.01489 5.04503 9.31301 4.98065 9.59924L4.07869 13.6113L7.56898 11.5037C7.69458 11.4287 7.83389 11.3906 7.97445 11.3906ZM5.51988 4.8917V4.89227V4.8917ZM10.4285 4.88975V4.89044C10.4285 4.89044 10.4285 4.89044 10.4285 4.88975Z" fill="black"/>
</g>
<defs>
<clipPath id="clip0">
<rect width="14.8572" height="15" fill="white" transform="translate(0.545898)"/>
</clipPath>
</defs>
</svg>
