<svg width="43" height="42" viewBox="0 0 43 42" fill="none" xmlns="http://www.w3.org/2000/svg">
<rect x="1" y="1" width="41" height="40" rx="3" stroke="#F18700" stroke-width="2"/>
<g clip-path="url(#clip0)">
<path d="M32.8731 28.9077L26.7603 25.9227C26.1838 25.6408 25.8255 25.0745 25.8255 24.4445V22.3314C25.972 22.1564 26.1262 21.957 26.2855 21.737C27.0783 20.6433 27.7137 19.4258 28.1757 18.1127C29.0786 17.7083 29.6647 16.8364 29.6647 15.852V13.352C29.6647 12.7502 29.4344 12.167 29.0249 11.7114V8.38705C29.0607 8.0433 29.2015 5.99705 27.6862 4.30893C26.3719 2.84455 24.2392 2.10205 21.3463 2.10205C18.4534 2.10205 16.3207 2.84455 15.0064 4.3083C13.4911 5.99643 13.6319 8.0433 13.6677 8.38705V11.7114C13.2582 12.167 13.0278 12.7502 13.0278 13.352V15.852C13.0278 16.6127 13.3817 17.322 13.9857 17.7952C14.5719 20.062 15.7985 21.7702 16.2272 22.3183V24.3864C16.2272 24.9914 15.8894 25.5464 15.3461 25.8364L9.63775 28.8777C7.78145 29.867 6.62903 31.7633 6.62903 33.8283V35.852C6.62903 38.8183 16.256 39.602 21.3463 39.602C26.4365 39.602 36.0636 38.8183 36.0636 35.852V33.9502C36.0636 31.8014 34.8407 29.8689 32.8731 28.9077ZM34.7838 35.852C34.7838 36.7002 30.041 38.352 21.3463 38.352C12.6516 38.352 7.90879 36.7002 7.90879 35.852V33.8283C7.90879 32.2214 8.8059 30.7445 10.2501 29.9758L15.9585 26.9345C16.9138 26.4252 17.507 25.4483 17.507 24.3864V21.8745L17.3579 21.7008C17.3426 21.6827 15.7742 19.8295 15.1759 17.2852L15.1177 17.0377L14.8995 16.9002C14.529 16.6664 14.3076 16.2745 14.3076 15.852V13.352C14.3076 13.0014 14.4599 12.6745 14.7363 12.4302L14.9475 12.2445V8.35205L14.9417 8.27018C14.9398 8.2533 14.7222 6.5208 15.9687 5.13205C17.029 3.9508 18.8386 3.35205 21.3463 3.35205C23.845 3.35205 25.6508 3.94643 26.7123 5.11955C27.9582 6.49518 27.7521 8.25518 27.7509 8.27018L27.7451 12.2445L27.9563 12.4308C28.2327 12.6745 28.385 13.0014 28.385 13.352V15.852C28.385 16.3977 28.019 16.8752 27.4751 17.0389L27.1564 17.1345L27.054 17.4439C26.6259 18.7446 26.0161 19.9458 25.2406 21.0145C25.0506 21.2777 24.8656 21.5108 24.705 21.6889L24.5457 21.8664V24.4445C24.5457 25.5508 25.1747 26.5452 26.1876 27.0402L32.3004 30.0252C33.8323 30.7733 34.7838 32.277 34.7838 33.9502V35.852Z" fill="black"/>
</g>
<defs>
<clipPath id="clip0">
<rect width="38.3929" height="37.5" fill="white" transform="translate(2.1499 2.10205)"/>
</clipPath>
</defs>
</svg>
