<svg width="21" height="21" viewBox="0 0 21 21" fill="none" xmlns="http://www.w3.org/2000/svg">
<path d="M10.4649 1C5.26199 1 1 5.26199 1 10.4649C1 12.5683 1.66421 14.5609 2.93727 16.2214C4.15498 17.8266 5.87085 19.0443 7.80812 19.5978C8.14022 19.7085 8.47232 19.4871 8.52768 19.2103C8.63838 18.8782 8.41697 18.5461 8.14022 18.4908C4.65314 17.4391 2.16236 14.1734 2.16236 10.5203C2.16236 5.9262 5.87085 2.21771 10.4649 2.21771C15.059 2.21771 18.7675 5.9262 18.7675 10.5203C18.7675 14.2841 16.2214 17.6052 12.5683 18.5461C12.2362 18.6015 12.0701 18.9336 12.1255 19.2657C12.1808 19.5424 12.4576 19.7085 12.679 19.7085C12.7343 19.7085 12.7897 19.7085 12.845 19.7085C17.0517 18.6015 19.9299 14.8376 19.9299 10.5203C19.9852 5.26199 15.7232 1 10.4649 1Z" fill="#F18700" stroke="#F18700"/>
<path d="M15.0589 13.2322L11.0737 10.1879V7.5864C11.0737 7.25429 10.7969 6.97754 10.4648 6.97754C10.1327 6.97754 9.85596 7.25429 9.85596 7.5864V10.52C9.85596 10.686 9.96666 10.8521 10.0774 10.9628L14.3394 14.1731C14.4501 14.2285 14.5608 14.2838 14.6715 14.2838C14.8375 14.2838 15.0036 14.2285 15.1143 14.0624C15.391 13.7857 15.3357 13.3982 15.0589 13.2322Z" fill="#F18700" stroke="#F18700"/>
<path d="M11.0737 5.09616C11.0737 5.42826 10.7969 5.70502 10.4648 5.70502C10.1327 5.70502 9.85596 5.42826 9.85596 5.09616C9.85596 4.76406 10.1327 4.4873 10.4648 4.4873C10.7969 4.4873 11.0737 4.76406 11.0737 5.09616Z" fill="#F18700" stroke="#F18700"/>
<path d="M10.852 19.3764C10.852 19.7085 10.5752 19.9853 10.2431 19.9853C9.91103 19.9853 9.63428 19.7085 9.63428 19.3764C9.63428 19.0443 9.91103 18.7676 10.2431 18.7676C10.5752 18.7676 10.852 19.0443 10.852 19.3764Z" fill="#F18700" stroke="#F18700"/>
</svg>
