<svg width="24" height="34" viewBox="0 0 24 34" fill="none" xmlns="http://www.w3.org/2000/svg">
<g clip-path="url(#clip0)">
<path d="M22.271 13.2601C22.4428 12.4768 22.5459 11.6935 22.5459 10.9102C22.5459 5.4613 18.0785 1 12.5459 1C7.04762 1 2.5459 5.4613 2.5459 10.9102C2.5459 11.6935 2.64899 12.4768 2.82081 13.2601C3.09573 14.8607 3.43937 16.1548 3.92047 17.1084C4.91703 19.1517 9.04074 25.8947 10.9308 28.9938C8.35346 29.3344 7.18507 30.4241 7.18507 31.4458C7.18507 32.6718 8.86892 34 12.5459 34C16.2229 34 17.9067 32.6718 17.9067 31.4458C17.9067 30.4241 16.704 29.3344 14.161 28.9938C16.0511 25.9288 20.2091 19.1517 21.1713 17.1084C21.6181 16.1548 21.9961 14.8607 22.271 13.2601ZM16.3603 31.4458C16.2572 31.7523 14.9514 32.4675 12.5459 32.4675C10.106 32.4675 8.80019 31.7183 8.73147 31.4458C8.80019 31.2074 9.86549 30.5604 11.8586 30.4582C11.893 30.4923 11.893 30.5263 11.893 30.5263C12.0304 30.7647 12.271 30.9009 12.5459 30.9009C12.8208 30.9009 13.0614 30.7647 13.1988 30.5263C13.1988 30.5263 13.2332 30.4923 13.2332 30.4582C15.2263 30.5604 16.2916 31.1734 16.3603 31.4458ZM20.759 12.9195C20.759 12.9536 20.759 12.9536 20.759 12.9876C20.5184 14.452 20.1748 15.644 19.7968 16.4613C18.8002 18.5387 14.2641 25.8947 12.5803 28.6532C10.862 25.8947 6.32597 18.5046 5.36377 16.4613C4.91703 15.644 4.57339 14.452 4.33284 12.9876C4.33284 12.9536 4.33284 12.9536 4.33284 12.9195C4.16102 12.2724 4.09229 11.5913 4.09229 10.9102C4.09229 6.27864 7.87236 2.53251 12.5459 2.53251C17.2194 2.53251 20.9995 6.27864 20.9995 10.9102C20.9995 11.5913 20.9308 12.2724 20.759 12.9195Z" fill="#F18700"/>
<path d="M12.5464 5.3252C9.59105 5.3252 7.18555 7.7091 7.18555 10.6379C7.18555 13.5667 9.59105 15.9506 12.5464 15.9506C15.5017 15.9506 17.9072 13.5667 17.9072 10.6379C17.9072 7.7091 15.5017 5.3252 12.5464 5.3252ZM12.5464 14.4521C10.4502 14.4521 8.73194 12.7493 8.73194 10.6719C8.73194 8.59455 10.4502 6.89176 12.5464 6.89176C14.6426 6.89176 16.3608 8.59455 16.3608 10.6719C16.3608 12.7493 14.6426 14.4521 12.5464 14.4521Z" fill="#F18700"/>
</g>
<defs>
<clipPath id="clip0">
<rect width="20" height="33" fill="white" transform="translate(2.5459 1)"/>
</clipPath>
</defs>
</svg>
